<svg width="27" height="27" viewBox="0 0 27 27" fill="none" xmlns="http://www.w3.org/2000/svg">
<path d="M5.5 19.5264C5.5 18.4655 5.92143 17.4481 6.67157 16.6979C7.42172 15.9478 8.43913 15.5264 9.5 15.5264H17.5C18.5609 15.5264 19.5783 15.9478 20.3284 16.6979C21.0786 17.4481 21.5 18.4655 21.5 19.5264C21.5 20.0568 21.2893 20.5655 20.9142 20.9406C20.5391 21.3157 20.0304 21.5264 19.5 21.5264H7.5C6.96957 21.5264 6.46086 21.3157 6.08579 20.9406C5.71071 20.5655 5.5 20.0568 5.5 19.5264Z" stroke="black" stroke-width="1.5" stroke-linejoin="round"/>
<path d="M13.5 11.5264C15.1569 11.5264 16.5 10.1832 16.5 8.52637C16.5 6.86951 15.1569 5.52637 13.5 5.52637C11.8431 5.52637 10.5 6.86951 10.5 8.52637C10.5 10.1832 11.8431 11.5264 13.5 11.5264Z" stroke="black" stroke-width="1.5"/>
</svg>
